{
  "accessors": [
    {
      "bufferView": 2,
      "componentType": 5126,
      "count": 1266,
      "max": [
        0.29210001230239868,
        0.46990001201629639,
        0.97790002822875977
      ],
      "min": [
        -0.29210001230239868,
        -1.1811000108718872,
        -0.97790002822875977
      ],
      "type": "VEC3"
    },
    {
      "bufferView": 2,
      "byteOffset": 15192,
      "componentType": 5126,
      "count": 1266,
      "max": [
        1,
        1,
        1
      ],
      "min": [
        -1,
        -1,
        -1
      ],
      "type": "VEC3"
    },
    {
      "bufferView": 3,
      "componentType": 5126,
      "count": 1266,
      "max": [
        1,
        0.0020872720051556826,
        1,
        1
      ],
      "min": [
        -1,
        -0.0020872720051556826,
        -1,
        1
      ],
      "type": "VEC4"
    },
    {
      "bufferView": 1,
      "componentType": 5126,
      "count": 1266,
      "max": [
        0.99144798517227173,
        0.99092799425125122
      ],
      "min": [
        0.0085523296147584915,
        0.0090719498693943024
      ],
      "type": "VEC2"
    },
    {
      "bufferView": 0,
      "componentType": 5125,
      "count": 1386,
      "max": [
        1265
      ],
      "min": [
        0
      ],
      "type": "SCALAR"
    },
    {
      "bufferView": 2,
      "byteOffset": 30384,
      "componentType": 5126,
      "count": 36,
      "max": [
        2.9698700904846191,
        0.16509999334812164,
        0.17358599603176117
      ],
      "min": [
        -0.022082200273871422,
        -0.16509999334812164,
        -0.66332900524139404
      ],
      "type": "VEC3"
    },
    {
      "bufferView": 2,
      "byteOffset": 30816,
      "componentType": 5126,
      "count": 36,
      "max": [
        1,
        1,
        1
      ],
      "min": [
        -1,
        -1,
        -0.97814762592315674
      ],
      "type": "VEC3"
    },
    {
      "bufferView": 3,
      "byteOffset": 20256,
      "componentType": 5126,
      "count": 36,
      "max": [
        1,
        0,
        1,
        1
      ],
      "min": [
        -0.97814762592315674,
        0,
        -1,
        1
      ],
      "type": "VEC4"
    },
    {
      "bufferView": 1,
      "byteOffset": 10128,
      "componentType": 5126,
      "count": 36,
      "max": [
        0.99222898483276367,
        0.98899400234222412
      ],
      "min": [
        0.0077707301825284958,
        0.011006399989128113
      ],
      "type": "VEC2"
    },
    {
      "bufferView": 0,
      "byteOffset": 5544,
      "componentType": 5125,
      "count": 60,
      "max": [
        35
      ],
      "min": [
        0
      ],
      "type": "SCALAR"
    },
    {
      "bufferView": 2,
      "byteOffset": 31248,
      "componentType": 5126,
      "count": 5388,
      "max": [
        2.8320999145507812,
        1.2547899484634399,
        0.17779999971389771
      ],
      "min": [
        -3.3908998966217041,
        -1.7424099445343018,
        -0.17779999971389771
      ],
      "type": "VEC3"
    },
    {
      "bufferView": 2,
      "byteOffset": 95904,
      "componentType": 5126,
      "count": 5388,
      "max": [
        1,
        1,
        1
      ],
      "min": [
        -1,
        -1,
        -1
      ],
      "type": "VEC3"
    },
    {
      "bufferView": 3,
      "byteOffset": 20832,
      "componentType": 5126,
      "count": 5388,
      "max": [
        1,
        0.81915181875228882,
        1,
        1
      ],
      "min": [
        -1,
        -0.7071068286895752,
        -1,
        1
      ],
      "type": "VEC4"
    },
    {
      "bufferView": 1,
      "byteOffset": 10416,
      "componentType": 5126,
      "count": 5388,
      "max": [
        0.99103599786758423,
        0.99133098125457764
      ],
      "min": [
        0.0089643001556396484,
        0.0086690196767449379
      ],
      "type": "VEC2"
    },
    {
      "bufferView": 0,
      "byteOffset": 5784,
      "componentType": 5125,
      "count": 8532,
      "max": [
        5387
      ],
      "min": [
        0
      ],
      "type": "SCALAR"
    },
    {
      "bufferView": 2,
      "byteOffset": 160560,
      "componentType": 5126,
      "count": 1556,
      "max": [
        2.4130001068115234,
        5.9945001602172852,
        1.6573499441146851
      ],
      "min": [
        -3.5559999942779541,
        0.00010012800339609385,
        -2.8638501167297363
      ],
      "type": "VEC3"
    },
    {
      "bufferView": 2,
      "byteOffset": 179232,
      "componentType": 5126,
      "count": 1556,
      "max": [
        1,
        1,
        1
      ],
      "min": [
        -1,
        -1,
        -1
      ],
      "type": "VEC3"
    },
    {
      "bufferView": 3,
      "byteOffset": 107040,
      "componentType": 5126,
      "count": 1556,
      "max": [
        1,
        0.38267910480499268,
        1,
        1
      ],
      "min": [
        -1,
        -0.99998587369918823,
        -1,
        1
      ],
      "type": "VEC4"
    },
    {
      "bufferView": 1,
      "byteOffset": 53520,
      "componentType": 5126,
      "count": 1556,
      "max": [
        0.99791097640991211,
        0.90758699178695679
      ],
      "min": [
        2.7755598776686065e-17,
        0.375
      ],
      "type": "VEC2"
    },
    {
      "bufferView": 0,
      "byteOffset": 39912,
      "componentType": 5125,
      "count": 3084,
      "max": [
        1555
      ],
      "min": [
        0
      ],
      "type": "SCALAR"
    }
  ],
  "bufferViews": [
    {
      "buffer": 0,
      "byteLength": 52248,
      "byteOffset": 0,
      "name": "floatBufferViews",
      "target": 34963
    },
    {
      "buffer": 0,
      "byteLength": 65968,
      "byteOffset": 52248,
      "byteStride": 8,
      "name": "floatBufferViews",
      "target": 34962
    },
    {
      "buffer": 0,
      "byteLength": 197904,
      "byteOffset": 118216,
      "byteStride": 12,
      "name": "floatBufferViews",
      "target": 34962
    },
    {
      "buffer": 0,
      "byteLength": 131936,
      "byteOffset": 316120,
      "byteStride": 16,
      "name": "floatBufferViews",
      "target": 34962
    }
  ],
  "buffers": [
    {
      "byteLength": 448056,
      "uri": "scene.bin"
    }
  ],
  "images": [
    {
      "uri": "textures/switch_metallicRoughness.png"
    },
    {
      "uri": "textures/switch_normal.png"
    },
    {
      "uri": "textures/switch_baseColor.png"
    },
    {
      "uri": "textures/target_metallicRoughness.png"
    },
    {
      "uri": "textures/target_baseColor.png"
    },
    {
      "uri": "textures/material_metallicRoughness.png"
    },
    {
      "uri": "textures/material_baseColor.png"
    },
    {
      "uri": "textures/material_2_metallicRoughness.png"
    },
    {
      "uri": "textures/material_2_normal.png"
    },
    {
      "uri": "textures/material_2_baseColor.png"
    }
  ],
  "materials": [
    {
      "doubleSided": true,
      "name": "switch",
      "normalTexture": {
        "index": 1,
        "scale": 1,
        "texCoord": 0
      },
      "occlusionTexture": {
        "index": 0,
        "strength": 1,
        "texCoord": 0
      },
      "pbrMetallicRoughness": {
        "baseColorFactor": [
          1,
          1,
          1,
          1
        ],
        "baseColorTexture": {
          "index": 2,
          "texCoord": 0
        },
        "metallicFactor": 1,
        "metallicRoughnessTexture": {
          "index": 0,
          "texCoord": 0
        },
        "roughnessFactor": 1
      }
    },
    {
      "doubleSided": false,
      "name": "material_2",
      "normalTexture": {
        "index": 8,
        "scale": 1,
        "texCoord": 0
      },
      "occlusionTexture": {
        "index": 7,
        "strength": 1,
        "texCoord": 0
      },
      "pbrMetallicRoughness": {
        "baseColorFactor": [
          0.5,
          0.5,
          0.5,
          1
        ],
        "baseColorTexture": {
          "index": 9,
          "texCoord": 0
        },
        "metallicFactor": 0.75,
        "metallicRoughnessTexture": {
          "index": 7,
          "texCoord": 0
        },
        "roughnessFactor": 1
      }
    },
    {
      "doubleSided": true,
      "name": "target",
      "pbrMetallicRoughness": {
        "baseColorFactor": [
          1,
          1,
          1,
          1
        ],
        "baseColorTexture": {
          "index": 4,
          "texCoord": 0
        },
        "metallicFactor": 1,
        "metallicRoughnessTexture": {
          "index": 3,
          "texCoord": 0
        },
        "roughnessFactor": 1
      }
    },
    {
      "doubleSided": false,
      "name": "material",
      "pbrMetallicRoughness": {
        "baseColorFactor": [
          0.90000000000000002,
          0.90000000000000002,
          0.90000000000000002,
          1
        ],
        "baseColorTexture": {
          "index": 6,
          "texCoord": 0
        },
        "metallicFactor": 0.59999999999999998,
        "metallicRoughnessTexture": {
          "index": 5,
          "texCoord": 0
        },
        "roughnessFactor": 0.75
      }
    }
  ],
  "meshes": [
    {
      "name": "Material1",
      "primitives": [
        {
          "attributes": {
            "NORMAL": 1,
            "POSITION": 0,
            "TANGENT": 2,
            "TEXCOORD_0": 3
          },
          "indices": 4,
          "material": 0,
          "mode": 4
        }
      ]
    },
    {
      "name": "Material1",
      "primitives": [
        {
          "attributes": {
            "NORMAL": 6,
            "POSITION": 5,
            "TANGENT": 7,
            "TEXCOORD_0": 8
          },
          "indices": 9,
          "material": 1,
          "mode": 4
        }
      ]
    },
    {
      "name": "Material1",
      "primitives": [
        {
          "attributes": {
            "NORMAL": 11,
            "POSITION": 10,
            "TANGENT": 12,
            "TEXCOORD_0": 13
          },
          "indices": 14,
          "material": 2,
          "mode": 4
        }
      ]
    },
    {
      "name": "Material1",
      "primitives": [
        {
          "attributes": {
            "NORMAL": 16,
            "POSITION": 15,
            "TANGENT": 17,
            "TEXCOORD_0": 18
          },
          "indices": 19,
          "material": 3,
          "mode": 4
        }
      ]
    }
  ],
  "nodes": [
    {
      "children": [
        1
      ],
      "name": "RootNode (gltf orientation matrix)",
      "rotation": [
        -0.70710678118654746,
        -0,
        -0,
        0.70710678118654757
      ]
    },
    {
      "children": [
        2
      ],
      "name": "RootNode (model correction matrix)"
    },
    {
      "children": [
        3
      ],
      "matrix": [
        1,
        0,
        0,
        0,
        0,
        -4.3711390063094768e-08,
        0.999999999999999,
        0,
        0,
        -0.999999999999999,
        -4.3711390063094768e-08,
        0,
        0,
        0,
        0,
        1
      ],
      "name": "Collada visual scene group"
    },
    {
      "children": [
        4,
        6,
        8,
        10
      ],
      "name": "stern_spinner"
    },
    {
      "children": [
        5
      ],
      "matrix": [
        1,
        2.4492935982947064e-16,
        -5.6247947534497658e-16,
        0,
        -2.4492935982947064e-16,
        1,
        1.3776773781346162e-31,
        0,
        5.6247947534497658e-16,
        0,
        1,
        0,
        -3.0883100032806396,
        2.8322300910949707,
        -1.8477400541305542,
        1
      ],
      "name": "switch"
    },
    {
      "mesh": 0,
      "name": "Material1"
    },
    {
      "children": [
        7
      ],
      "matrix": [
        -3.4450571629590227e-16,
        -0.0076339959974092153,
        0.99997086062800422,
        0,
        -1,
        1.6950876252439995e-18,
        -3.4450281459942409e-16,
        0,
        9.348948762930901e-19,
        -0.99997086062800422,
        -0.0076339959974092153,
        0,
        -3.0883100032806396,
        3.4757199287414551,
        -2.6003599166870117,
        1
      ],
      "name": "bar"
    },
    {
      "mesh": 1,
      "name": "Material1"
    },
    {
      "children": [
        9
      ],
      "matrix": [
        1,
        0,
        0,
        0,
        0,
        1,
        0,
        0,
        0,
        0,
        1,
        0,
        0,
        3.8261299133300781,
        0,
        1
      ],
      "name": "target"
    },
    {
      "mesh": 2,
      "name": "Material1"
    },
    {
      "children": [
        11
      ],
      "name": "bracket"
    },
    {
      "mesh": 3,
      "name": "Material1"
    }
  ],
  "samplers": [
    {
      "magFilter": 9729,
      "minFilter": 9987,
      "wrapS": 10497,
      "wrapT": 10497
    }
  ],
  "scene": 0,
  "scenes": [
    {
      "name": "OSG_Scene",
      "nodes": [
        0
      ]
    }
  ],
  "textures": [
    {
      "sampler": 0,
      "source": 0
    },
    {
      "sampler": 0,
      "source": 1
    },
    {
      "sampler": 0,
      "source": 2
    },
    {
      "sampler": 0,
      "source": 3
    },
    {
      "sampler": 0,
      "source": 4
    },
    {
      "sampler": 0,
      "source": 5
    },
    {
      "sampler": 0,
      "source": 6
    },
    {
      "sampler": 0,
      "source": 7
    },
    {
      "sampler": 0,
      "source": 8
    },
    {
      "sampler": 0,
      "source": 9
    }
  ]
}

